<svg width="26" height="26" viewBox="0 0 26 26" fill="none" xmlns="http://www.w3.org/2000/svg">
<path d="M8.66669 10.8333V7.58333C8.66669 6.43406 9.12323 5.33186 9.93589 4.5192C10.7485 3.70655 11.8507 3.25 13 3.25C14.1493 3.25 15.2515 3.70655 16.0641 4.5192C16.8768 5.33186 17.3334 6.43406 17.3334 7.58333V10.8333" stroke="white" stroke-width="1.5" stroke-linecap="round"/>
<path d="M5.41669 10.8333H20.5834V20.5833C20.5834 21.158 20.3551 21.7091 19.9488 22.1154C19.5424 22.5217 18.9913 22.75 18.4167 22.75H7.58335C7.00872 22.75 6.45762 22.5217 6.05129 22.1154C5.64496 21.7091 5.41669 21.158 5.41669 20.5833V10.8333Z" stroke="white" stroke-width="1.5" stroke-linejoin="round"/>
<path d="M15.7084 16.7917H15.7192V16.8025H15.7084V16.7917Z" stroke="white" stroke-width="2.25" stroke-linejoin="round"/>
</svg>
