<svg width="24" height="24" viewBox="0 0 24 24" fill="none" xmlns="http://www.w3.org/2000/svg">
<path d="M13.5 10L17.5 14M17.5 10L13.5 14M19.595 18.5H9.29802C8.77643 18.4999 8.27548 18.2961 7.90202 17.932L2.55202 12.716C2.45647 12.6228 2.38053 12.5115 2.32868 12.3885C2.27683 12.2656 2.25012 12.1335 2.25012 12C2.25012 11.8665 2.27683 11.7344 2.32868 11.6115C2.38053 11.4885 2.45647 11.3772 2.55202 11.284L7.90202 6.068C8.27548 5.70387 8.77643 5.50005 9.29802 5.5H19.595C20.545 5.5 21.818 6.041 21.818 7.125V16.875C21.818 17.959 20.545 18.5 19.595 18.5Z" stroke="white" stroke-width="1.5" stroke-linecap="round" stroke-linejoin="round"/>
</svg>
