<svg width="40" height="40" viewBox="0 0 40 40" fill="none" xmlns="http://www.w3.org/2000/svg">
<path d="M20 24.1667C19.8358 24.1674 19.6731 24.1354 19.5214 24.0724C19.3697 24.0095 19.2321 23.9168 19.1167 23.8L13.3334 17.9667C13.181 17.7317 13.112 17.4525 13.1373 17.1736C13.1626 16.8948 13.2808 16.6325 13.473 16.4289C13.6651 16.2252 13.92 16.0919 14.1969 16.0504C14.4738 16.0089 14.7566 16.0616 15 16.2L20 21.2L25 16.2C25.2434 16.0616 25.5262 16.0089 25.8031 16.0504C26.08 16.0919 26.335 16.2252 26.5271 16.4289C26.7192 16.6325 26.8374 16.8948 26.8627 17.1736C26.888 17.4525 26.819 17.7317 26.6667 17.9667L20.8334 23.8C20.6125 24.024 20.3144 24.1552 20 24.1667Z" fill="white"/>
</svg>
