<svg width="20" height="20" viewBox="0 0 20 20" fill="none" xmlns="http://www.w3.org/2000/svg">
<path d="M9.985 0C11.074 0 11.956 0.898 11.956 2.006L11.947 2.169C12.815 2.521 13.654 3.105 14.398 3.879C15.26 4.772 15.764 5.956 15.919 7.475V12.953L17.11 15.051C17.51 15.717 17.638 16.275 17.326 16.758C17.04 17.199 16.529 17.353 15.836 17.341H13.166C12.854 18.86 11.532 20 9.95 20C8.368 20 7.045 18.86 6.734 17.342H3.778L3.722 17.339C3.095 17.285 2.628 16.982 2.523 16.399C2.452 16.002 2.546 15.576 2.791 15.068L4.016 12.888L4.019 7.415C4.126 6.205 4.579 5.078 5.367 4.044C6.034 3.169 6.987 2.525 8.021 2.154C8.01717 2.10476 8.01517 2.05539 8.015 2.006C8.015 0.898 8.897 0 9.985 0ZM11.803 17.342H8.097C8.372 18.112 9.097 18.662 9.95 18.662C10.802 18.662 11.528 18.112 11.803 17.342ZM10.082 3.124C8.728 3.124 7.239 3.769 6.405 4.864C5.767 5.7 5.411 6.586 5.33 7.474V13.064C5.33 13.181 5.3 13.296 5.243 13.397L3.952 15.693C3.892 15.8197 3.852 15.9233 3.832 16.004H15.846C15.967 16.006 16.059 16.001 16.122 15.999C16.0795 15.9084 16.0324 15.8199 15.981 15.734L14.694 13.467C14.6371 13.3645 14.6068 13.2493 14.606 13.132L14.609 7.546C14.488 6.384 14.103 5.482 13.46 4.814C12.42 3.734 11.198 3.124 10.082 3.124ZM9.985 1.337C9.83911 1.33801 9.69766 1.38733 9.58278 1.47725C9.46789 1.56717 9.38603 1.69262 9.35 1.834C9.596 1.80267 9.84 1.787 10.082 1.787C10.2593 1.787 10.4377 1.79767 10.617 1.819C10.5783 1.6809 10.4957 1.55916 10.3817 1.4722C10.2677 1.38523 10.1284 1.33777 9.985 1.337Z" fill="white"/>
</svg>
